<svg width="51" height="27" viewBox="0 0 51 27" fill="none" xmlns="http://www.w3.org/2000/svg">
<g clip-path="url(#clip0)">
<g filter="url(#filter0_d)">
<path fill-rule="evenodd" clip-rule="evenodd" d="M0 10C0 4.47715 4.47715 0 10 0H41C46.5228 0 51 4.47715 51 10V14C51 19.5228 46.5228 24 41 24H30L25 27L20 24H10C4.47715 24 0 19.5228 0 14V10Z" fill="white"/>
</g>
<path d="M12.4316 17V13.6719H15.8711V12.2715H12.4316V10.0039H16.1992V8.54492H10.6621V17H12.4316ZM17.1016 17H18.8125V13.4902C18.8125 12.6055 19.3047 12.0898 20.1484 12.0898C20.3945 12.0898 20.6289 12.1309 20.7695 12.1895V10.6836C20.6523 10.6484 20.4824 10.6191 20.2832 10.6191C19.5449 10.6191 19.0117 11.0527 18.7891 11.8496H18.7539V10.7188H17.1016V17ZM24.0801 11.8496C24.8418 11.8496 25.3633 12.4004 25.3984 13.2031H22.7324C22.791 12.418 23.3301 11.8496 24.0801 11.8496ZM25.4219 15.0781C25.2637 15.5586 24.7832 15.8691 24.1562 15.8691C23.2832 15.8691 22.7148 15.2539 22.7148 14.3574V14.252H27.0449V13.7305C27.0449 11.8203 25.8906 10.584 24.0625 10.584C22.2051 10.584 21.0332 11.8848 21.0332 13.8887C21.0332 15.8984 22.1934 17.1348 24.127 17.1348C25.6797 17.1348 26.8047 16.3086 26.9922 15.0781H25.4219ZM30.748 11.8496C31.5098 11.8496 32.0312 12.4004 32.0664 13.2031H29.4004C29.459 12.418 29.998 11.8496 30.748 11.8496ZM32.0898 15.0781C31.9316 15.5586 31.4512 15.8691 30.8242 15.8691C29.9512 15.8691 29.3828 15.2539 29.3828 14.3574V14.252H33.7129V13.7305C33.7129 11.8203 32.5586 10.584 30.7305 10.584C28.873 10.584 27.7012 11.8848 27.7012 13.8887C27.7012 15.8984 28.8613 17.1348 30.7949 17.1348C32.3477 17.1348 33.4727 16.3086 33.6602 15.0781H32.0898Z" fill="black"/>
<path fill-rule="evenodd" clip-rule="evenodd" d="M40.8831 18.4697C40.4926 18.8602 39.8594 18.8602 39.4689 18.4697L36.2929 15.2937C35.6695 14.6702 36.0993 13.6037 36.9808 13.5868L38.1975 13.5634V8C38.1975 7.44772 38.6452 7 39.1975 7H41.3153C41.8676 7 42.3153 7.44771 42.3153 8V13.4842L43.4572 13.4623C44.3572 13.445 44.8201 14.5327 44.1835 15.1692L40.8831 18.4697Z" fill="#EE304E"/>
</g>
<defs>
<filter id="filter0_d" x="-4" y="-2" width="59" height="35" filterUnits="userSpaceOnUse" color-interpolation-filters="sRGB">
<feFlood flood-opacity="0" result="BackgroundImageFix"/>
<feColorMatrix in="SourceAlpha" type="matrix" values="0 0 0 0 0 0 0 0 0 0 0 0 0 0 0 0 0 0 127 0" result="hardAlpha"/>
<feOffset dy="2"/>
<feGaussianBlur stdDeviation="2"/>
<feColorMatrix type="matrix" values="0 0 0 0 0.352925 0 0 0 0 0 0 0 0 0 0.487432 0 0 0 0.258332 0"/>
<feBlend mode="normal" in2="BackgroundImageFix" result="effect1_dropShadow"/>
<feBlend mode="normal" in="SourceGraphic" in2="effect1_dropShadow" result="shape"/>
</filter>
<clipPath id="clip0">
<rect width="51" height="27" fill="white"/>
</clipPath>
</defs>
</svg>
