<svg width="51" height="27" viewBox="0 0 51 27" fill="none" xmlns="http://www.w3.org/2000/svg">
<g clip-path="url(#clip0)">
<g filter="url(#filter0_d)">
<path fill-rule="evenodd" clip-rule="evenodd" d="M0 10C0 4.47715 4.47715 0 10 0H41C46.5228 0 51 4.47715 51 10V14C51 19.5228 46.5228 24 41 24H30L25 27L20 24H10C4.47715 24 0 19.5228 0 14V10Z" fill="white"/>
</g>
<path d="M10.6328 8.54492V17H12.4023V14.334H13.9844C15.7656 14.334 17.002 13.1738 17.002 11.4395C17.002 9.69922 15.8066 8.54492 14.0723 8.54492H10.6328ZM12.4023 9.94531H13.6035C14.6172 9.94531 15.2031 10.4844 15.2031 11.4453C15.2031 12.4121 14.6113 12.9512 13.5977 12.9512H12.4023V9.94531ZM19.8203 9.92773H21.3262C22.2051 9.92773 22.7559 10.4551 22.7559 11.2754C22.7559 12.1133 22.2344 12.623 21.3438 12.623H19.8203V9.92773ZM19.8203 13.9062H21.2383L22.8145 17H24.8184L23.0371 13.6426C24.0098 13.2617 24.5723 12.3242 24.5723 11.2402C24.5723 9.57031 23.459 8.54492 21.5137 8.54492H18.0508V17H19.8203V13.9062ZM29.5527 8.39844C27.0449 8.39844 25.4746 10.0801 25.4746 12.7754C25.4746 15.4648 27.0449 17.1465 29.5527 17.1465C32.0547 17.1465 33.6309 15.4648 33.6309 12.7754C33.6309 10.0801 32.0547 8.39844 29.5527 8.39844ZM29.5527 9.875C30.9355 9.875 31.8203 11 31.8203 12.7754C31.8203 14.5449 30.9355 15.6641 29.5527 15.6641C28.1641 15.6641 27.2793 14.5449 27.2793 12.7754C27.2793 11 28.1699 9.875 29.5527 9.875Z" fill="black"/>
<path fill-rule="evenodd" clip-rule="evenodd" d="M40.8831 18.4697C40.4926 18.8602 39.8594 18.8602 39.4689 18.4697L36.2929 15.2937C35.6695 14.6703 36.0993 13.6037 36.9808 13.5868L38.1975 13.5634V8C38.1975 7.44772 38.6452 7 39.1975 7H41.3153C41.8676 7 42.3153 7.44772 42.3153 8V13.4842L43.4572 13.4623C44.3572 13.445 44.8201 14.5327 44.1835 15.1692L40.8831 18.4697Z" fill="#04CD00"/>
</g>
<defs>
<filter id="filter0_d" x="-4" y="-2" width="59" height="35" filterUnits="userSpaceOnUse" color-interpolation-filters="sRGB">
<feFlood flood-opacity="0" result="BackgroundImageFix"/>
<feColorMatrix in="SourceAlpha" type="matrix" values="0 0 0 0 0 0 0 0 0 0 0 0 0 0 0 0 0 0 127 0" result="hardAlpha"/>
<feOffset dy="2"/>
<feGaussianBlur stdDeviation="2"/>
<feColorMatrix type="matrix" values="0 0 0 0 0.352925 0 0 0 0 0 0 0 0 0 0.487432 0 0 0 0.258332 0"/>
<feBlend mode="normal" in2="BackgroundImageFix" result="effect1_dropShadow"/>
<feBlend mode="normal" in="SourceGraphic" in2="effect1_dropShadow" result="shape"/>
</filter>
<clipPath id="clip0">
<rect width="51" height="27" fill="white"/>
</clipPath>
</defs>
</svg>
